<svg style="height: 512px; width: 512px;" xmlns="http://www.w3.org/2000/svg" viewBox="0 0 512 512"><defs><filter id="shadow-1" height="300%" width="300%" x="-100%" y="-100%"><feFlood flood-color="rgba(97, 0, 0, 1)" result="flood"></feFlood><feComposite in="flood" in2="SourceGraphic" operator="atop" result="composite"></feComposite><feGaussianBlur in="composite" stdDeviation="15" result="blur"></feGaussianBlur><feOffset dx="0" dy="0" result="offset"></feOffset><feComposite in="SourceGraphic" in2="offset" operator="over"></feComposite></filter></defs><g class="" style="" transform="translate(0,0)"><path d="M196 16a30 30 0 0 0-30 30v120H46a30 30 0 0 0-30 30v120a30 30 0 0 0 30 30h120v120a30 30 0 0 0 30 30h120a30 30 0 0 0 30-30V346h120a30 30 0 0 0 30-30V196a30 30 0 0 0-30-30H346V46a30 30 0 0 0-30-30H196z" fill="#880000" fill-opacity="1" style="--darkreader-inline-fill: var(--darkreader-background-d00000, #a60000);" data-darkreader-inline-fill="" filter="url(#shadow-1)"></path></g></svg>